<?xml version="1.0"?><svg version="1.2" baseProfile="tiny-ps" viewBox="0 0 180 180" xmlns="http://www.w3.org/2000/svg"><title>PiPilot</title><g><g fill="#FFF1E0" transform="matrix(.1 0 0 -.1 0 180)"><path d="M636 1365c-13-14-29-39-36-55l-13-30-43-11-43-11-18-20-18-20V665l20-35 21-35 33-20c18-11 53-37 78-58l46-39 36 5c20 3 89 11 153 18l118 12 60-16c33-9 71-17 84-17h24l43 36c24 20 63 45 87 57l44 20 14 33 14 33v538l-20 45-20 46-40 36c-22 20-45 36-50 36h-15c-3 0-18 6-35 15l-29 15H659l-23-25z"/></g><g fill="#FDBA74" transform="matrix(.1 0 0 -.1 0 180)"><path d="M636 1365c-13-14-29-39-36-55l-13-30-43-11-43-11-18-20-18-20V665l20-35 21-35 33-20c18-11 53-37 78-58l46-39 36 5c20 3 89 11 153 18l118 12 60-16c33-9 71-17 84-17h24l43 36c24 20 63 45 87 57l44 20 14 33 14 33v546l-20 32-19 32-40 11-40 11-22 38-22 39-24 11-24 11H659l-23-25zm379-221c17-8 22-12 13-9l-18 4v-22c0-12-7-32-15-44l-15-21 13-5c6-3-19-6-58-7l-70-1-16-12c-9-7-21-22-27-34l-12-22-1-88c-1-48-3-80-6-70l-5 18-35-58c-19-32-39-61-46-65l-11-6 35-5 34-4-37-1-38-2v340l16 40 17 41 36 25 36 24h90l90-1 30-15zM903 853c-7-2-19-2-25 0l-13 5h50l-12-5zM667 583l-5-18v60l5-12c2-7 2-21 0-30zm24 14-12-12 7 18c3 10 9 15 12 12s0-11-7-18zm129 13 10 15v-10c0-6-9-18-20-28l-20-17v55l10-15 10-15 10 15z"/></g><g fill="#FB8C3C" transform="matrix(.1 0 0 -.1 0 180)"><path d="m652 1373-13-18 6 15 7 15-21-25c-11-14-26-37-32-53l-12-27-43-11-43-11-18-20-18-20V665l20-35 21-35 33-20c18-11 53-37 78-58l46-39 36 5c20 3 89 11 153 18l118 12 60-16c33-9 71-17 84-17h24l43 36c24 20 63 45 87 57l44 20 14 33 14 33v542l-15 29-15 30-47 11-46 12-16 30c-9 17-26 41-38 54l-22 23H665l-13-17zm371-227 37-18 21-30 21-29-12-14-12-15H873l-26-20-25-20-7-137-7-138-16-17-15-18h-77v367l23 34 22 34 45 23 45 23 75-4 75-4 38-17zm49-176h16l15 23 16 22v-68l1-68-14-32c-16-39-61-82-99-96l-28-11H863l-2 60-2 60h83l29 29 29 29v106l28-27c15-15 35-27 44-27zM695 619l7-11-21-19-21-20v61h14c8 0 18-5 21-11zm133-12 3-17h-14c-9 0-18-6-20-12l-5-13-1 33-1 33 17-3 18-3 3-18zm-81-29-5-13v50l5-12c2-7 2-19 0-25zm-77 32c0-5 5-10 10-10 6 0 10 5 10 10 0 6-4 10-10 10-5 0-10-4-10-10zm130 0c0-5 5-10 10-10 6 0 10 5 10 10 0 6-4 10-10 10-5 0-10-4-10-10z"/></g><g fill="#E4761B" transform="matrix(.1 0 0 -.1 0 180)"><path d="m1054 1364 17-17-12-8-12-7 24-4c13-2-70-7-184-10l-208-7-87-27-87-27-20-19-20-19V665l20-35 21-35 33-20c18-11 51-35 72-54l40-34 112 9c130 10 213 10 315-1l73-8 27 26c15 14 47 37 71 49l44 24 21 28 21 27v577l-19 21-20 22-40 10-41 11-30 46-30 47-59 3-59 3 17-17zm192-181c-3-10-8-35-12-56l-6-38-14 12-14 12-40-44-39-44-1-80v-80l-23-40-22-40-40-22-40-23H830v119l48 6c26 3 57 8 69 11l22 4 10 18c5 10 11 44 12 77l3 60H862l-21-19-21-19V732l-31-26-31-26h-58v377l23 33c12 18 35 43 50 54l28 21 84 3 83 4 45-20 45-20 23-31 23-31 19 17c10 10 23 26 29 36l9 18-11 14-11 13 43 15c24 9 49 16 56 16l13 1-5-17zM698 607l3-17h-14c-9 0-18-6-20-12l-5-13-1 33-1 33 17-3 18-3 3-18zm130 0 3-17h-14c-9 0-18-6-20-12l-5-13-1 33-1 33 17-3 18-3 3-18zm49-24-5-18v70l5-17c2-10 2-26 0-35zm177 23 11-17-19-14-19-15-14 11c-7 6-13 20-13 29v18l13 5c18 8 29 3 41-17zm70-3c-9-38-11-39-16-3l-5 30h27l-6-27zm-192-8 5-25h-17v25c0 14 2 25 4 25s6-11 8-25zm-185-17-5-13v50l5-12c2-7 2-19 0-25zm-77 32c0-5 5-10 11-10h10l-6 10c-3 6-8 10-11 10-2 0-4-4-4-10zm343-6-6-15 9-9 9-9 14 8 14 9-6 16c-8 20-26 21-34 0z"/></g><g fill="#A8500E" transform="matrix(.1 0 0 -.1 0 180)"><path d="m1021 1312-163-3-5-19-5-20h-29l6-10 6-10h-31l3-12 2-13-12 2-13 3v-31l-12 7-11 7 7-11 6-10-10-26c-11-30-11-31 26-11l29 15h166l32-14 32-13 32-36 31-36 28 36 27 36-17 12-17 13 47 16c26 9 54 16 62 16h14l-6-37c-4-21-9-46-12-56l-6-18-14 12-14 11-27-33c-16-18-33-39-39-48l-12-16-3-86-4-86-28-36c-15-20-41-44-57-52l-29-15H830v130h117l21 23 22 23v114H860l-20-20-20-20V733l-25-27-25-27-38 3-37 3-3 160c-3 182 0 206 30 255 42 68 31 79-26 25l-38-35-9 5-9 6v-22l-20 6-20 6v-31h-29l-5 33c-3 17-7 50-8 71l-3 40-34 8-33 9-7-6c-3-4-8-126-9-272l-4-265 12-29c12-29 73-89 90-89 5 0 26-11 46-25l37-25h505l30 25c17 14 33 25 37 25 17 0 76 53 90 80l15 29v551l-19 19-20 20-40 11-40 11-13 17-13 17-164-3zM700 610v-20h-30v-31l-10 6c-11 7-14 48-3 58 3 4 15 7 25 7h18v-20zm50-16v-35l-10 6-10 6 2 30c1 16 6 29 10 29h8v-36zm83 23 5-13-24-21-24-21v68h38l5-13zm44-39-4-23v40l-1 40 5-17c2-10 2-28 0-40zm56 22-5-20h32v-21l-17 3-18 3-3 34-3 33 9-6 10-6-5-20zm125 4 3-21-14-12-14-11-16 6c-8 3-18 13-21 21l-6 16 11 14 12 14 21-3 21-3 3-21zm74 14c-5-7-12-24-15-38l-4-25-2 26c0 14-6 30-13 37l-12 12h56l-10-12zm-119-14c-7-19 2-28 22-21 19 8 19 23 0 31l-16 6-6-16z"/></g><g fill="#5A2D08" transform="matrix(.1 0 0 -.1 0 180)"><path d="m1218 1244 4-32-14-5c-7-2-3-2 10 0s27 1 31-2l9-5-10-47c-5-27-11-54-14-62l-4-13-15 12-16 13-35-41-35-41-3-78-3-78-16-31c-9-18-30-43-47-58l-31-25-42-12-42-11-62 5-63 6-1-9c-1-6-2-16-3-22 0-7-6-13-13-13-6 0-15-3-19-7-4-5-27-8-51-8h-43l-2 108-2 107-3-88-4-89-37 7-38 6-16-18c-9-10-19-28-22-40l-7-23h-69v-9c0-19 38-52 103-86l68-36 252 3 252 3 38 25c21 14 54 38 73 53l34 29 11 38 11 38-4 255-4 256-17 19-18 20-37 9-38 10 4-33zM750 600v-40h-20v33c0 30 6 47 17 47 2 0 3-18 3-40zm-44 19 6-11-25-24c-34-31-37-30-37 11v35h49l7-11zm130 0 6-11-25-23c-29-27-37-23-37 17v28h49l7-11zm44-25v-35l-10 6c-17 10-11 65 7 65 2 0 3-16 3-36zm60 11v-25h10c6 0 10-4 10-10v-10h-40v70h20v-25zm115-10v-30h-48l-10 17-11 16 14 17 13 16 21-3 21-3v-30zm79 8c-4-16-11-32-15-37l-9-10v54h-10c-5 0-10 5-10 10v10h50l-6-27zm-124-8v-15h30v30h-30v-15zm45 542c11-10 27-27 36-39l15-20 15 18 14 18-13-8-13-8-22 19c-12 10-29 23-37 28l-16 10 21-18zm56 10c-6-6-11-15-11-19v-8l22 3c26 4 35 22 15 30l-15 5-11-11zm-271-137-20-20V865l66 5 66 6 19 23 19 23v108H860l-20-20z"/></g></g></svg>